<?xml version="1.0" encoding="utf-8"?>
<!-- Generator: Adobe Illustrator 20.0.0, SVG Export Plug-In . SVG Version: 6.00 Build 0)  -->
<svg version="1.1" id="Layer_1" xmlns="http://www.w3.org/2000/svg" xmlns:xlink="http://www.w3.org/1999/xlink" x="0px" y="0px"
	 viewBox="0 0 800 600" enable-background="new 0 0 800 600" xml:space="preserve">
<rect fill="#E5E5E5" width="800" height="600"/>
<g>
	<polygon fill="#46AF57" points="650,92.5 693.3,167.5 606.7,167.5 	"/>
	<polygon fill="#46AF57" points="650,127.5 710.6,232.5 589.4,232.5 	"/>
	<polygon fill="#46AF57" points="650,172.5 727.9,307.5 572.1,307.5 	"/>
</g>
<g>
	<polygon fill="#46AF57" points="150,162.5 205.6,258.4 94.4,258.4 	"/>
	<polygon fill="#46AF57" points="150,207.3 227.8,341.6 72.2,341.6 	"/>
	<polygon fill="#46AF57" points="150,264.8 250,437.5 50,437.5 	"/>
</g>
<path fill="#EF3030" d="M400,500L400,500c-110.5,0-200-89.5-200-200v0c0-110.5,89.5-200,200-200h0c110.5,0,200,89.5,200,200v0
	C600,410.5,510.5,500,400,500z"/>
<path fill="#FFFFFF" d="M590,390H210c-11,0-20-9-20-20v0c0-11,9-20,20-20h380c11,0,20,9,20,20v0C610,381,601,390,590,390z"/>
<rect x="360" y="350" fill="#EFB848" width="80" height="40"/>
<path fill="#F2CEAA" d="M400,220L400,220c-38.7,0-70-31.3-70-70v0c0-38.7,31.3-70,70-70h0c38.7,0,70,31.3,70,70v0
	C470,188.7,438.7,220,400,220z"/>
<rect x="435" y="130" transform="matrix(3.966123e-10 1 -1 3.966123e-10 600 -320)" fill="#FFFFFF" width="50" height="20"/>
<rect x="315" y="130" transform="matrix(4.553476e-10 1 -1 4.553476e-10 480 -200)" fill="#FFFFFF" width="50" height="20"/>
<path fill="#FFFFFF" d="M470,120H330v-10c0-5.5,4.5-10,10-10h120c5.5,0,10,4.5,10,10V120z"/>
<path fill="#EF3030" d="M495,53.2c-16.6-16.6-39.6-26.9-65-26.9c-25.4,0-48.3,10.3-65,26.9c-12.5,12.5-21.4,28.8-25,46.8h116.9
	c14-14,32.5-24.3,53.1-27C505.9,65.7,500.8,59.1,495,53.2z"/>
<path fill="#FFFFFF" d="M510,83.2L510,83.2c-5.5,0-10-4.5-10-10v0c0-5.5,4.5-10,10-10l0,0c5.5,0,10,4.5,10,10v0
	C520,78.7,515.5,83.2,510,83.2z"/>
<path fill="#FFFFFF" d="M470,160H330v29.1c0,38.6,30.9,70.6,69.5,70.9c38.9,0.3,70.5-31.2,70.5-70V160z M400,200c-11,0-20-9-20-20
	h40C420,191,411,200,400,200z"/>
<path fill="#191919" d="M380,155L380,155c-5.5,0-10-4.5-10-10v0c0-5.5,4.5-10,10-10l0,0c5.5,0,10,4.5,10,10v0
	C390,150.5,385.5,155,380,155z"/>
<path fill="#191919" d="M420,155L420,155c-5.5,0-10-4.5-10-10v0c0-5.5,4.5-10,10-10l0,0c5.5,0,10,4.5,10,10v0
	C430,150.5,425.5,155,420,155z"/>
<path fill="#F2CEAA" d="M600,280h-20h-10c-5.5,0-10,4.5-10,10l0,0c0,5.5,4.5,10,10,10l0,0c5.5,0,10,4.5,10,10l0,0
	c0,5.5,4.5,10,10,10h10h10c5.5,0,10-4.5,10-10v-10v-10c0-5.5-4.5-10-10-10H600z"/>
<path fill="#F2CEAA" d="M200,280L200,280c11,0,20,9,20,20v0c0,11-9,20-20,20h0c-11,0-20-9-20-20v0C180,289,189,280,200,280z"/>
<rect x="429.4" y="449.4" fill="#FF7733" width="61.2" height="61.2"/>
<rect x="429.4" y="475.6" transform="matrix(1.960769e-06 1 -1 1.960769e-06 939.9991 19.999)" fill="#29CCCC" width="61.2" height="8.7"/>
<rect x="429.4" y="475.6" fill="#29CCCC" width="61.2" height="8.7"/>
<rect x="425" y="449.4" fill="#E52E70" width="70" height="8.7"/>
<path fill="#B26847" d="M600,480L600,480c-44.2,0-80-35.8-80-80v0c0-44.2,35.8-80,80-80h0c44.2,0,80,35.8,80,80v0
	C680,444.2,644.2,480,600,480z"/>
<path fill="#B26847" d="M610,280h-20l-6.4-12.8c-5.9-11.9,1.9-26.4,15.2-27.2c0.4,0,0.8,0,1.2,0l0,0c0.4,0,0.8,0,1.2,0
	c13.3,0.8,21.2,15.3,15.2,27.2L610,280z"/>
<rect x="300" y="420" fill="#29CC5A" width="140" height="140"/>
<rect x="300" y="480" transform="matrix(-1.836970e-16 1 -1 -1.836970e-16 860 120)" fill="#CC2929" width="140" height="20"/>
<rect x="300" y="480" fill="#CC2929" width="140" height="20"/>
<rect x="290" y="420" fill="#26B24A" width="160" height="20"/>
<rect x="110" y="385" fill="#2B66CC" width="120" height="120"/>
<rect x="110" y="437" transform="matrix(3.050082e-07 1 -1 3.050082e-07 614.9999 274.9998)" fill="#FFBB33" width="120" height="16"/>
<rect x="110" y="437" fill="#FFBB33" width="120" height="16"/>
<rect x="101.4" y="385" fill="#2727AF" width="137.1" height="17.1"/>
</svg>
